<svg width="20" height="20" viewBox="0 0 20 20" fill="none" xmlns="http://www.w3.org/2000/svg">
<path d="M18.3983 0.882074C17.5555 0.0393088 16.1933 0.0393088 15.3505 0.882074L14.1922 2.03655L17.9596 5.80398L19.1179 4.64565C19.9607 3.80289 19.9607 2.44061 19.1179 1.59785L18.3983 0.882074ZM6.88437 9.34821C6.64963 9.58295 6.46876 9.87157 6.36486 10.191L5.22578 13.6082C5.11418 13.9392 5.20269 14.3047 5.44897 14.5549C5.69526 14.805 6.06084 14.8897 6.39564 14.7781L9.81288 13.639C10.1284 13.5351 10.4171 13.3542 10.6556 13.1195L17.0938 6.67753L13.3225 2.90625L6.88437 9.34821ZM3.94431 2.50988C1.90474 2.50988 0.25 4.16462 0.25 6.20419V16.0557C0.25 18.0953 1.90474 19.75 3.94431 19.75H13.7958C15.8354 19.75 17.4901 18.0953 17.4901 16.0557V12.3614C17.4901 11.6802 16.9398 11.1299 16.2587 11.1299C15.5775 11.1299 15.0272 11.6802 15.0272 12.3614V16.0557C15.0272 16.7368 14.4769 17.2871 13.7958 17.2871H3.94431C3.26317 17.2871 2.71287 16.7368 2.71287 16.0557V6.20419C2.71287 5.52305 3.26317 4.97275 3.94431 4.97275H7.63862C8.31976 4.97275 8.87006 4.42246 8.87006 3.74132C8.87006 3.06018 8.31976 2.50988 7.63862 2.50988H3.94431Z" fill="#2B2B2B"/>
</svg>
