<svg width="111" height="28" viewBox="0 0 111 28" fill="none" xmlns="http://www.w3.org/2000/svg">
<path d="M14.0461 21H10.6261L4.90609 12.34V21H1.48609V6.96H4.90609L10.6261 15.66V6.96H14.0461V21ZM21.6052 21.16C20.5118 21.16 19.5252 20.9267 18.6452 20.46C17.7785 19.9933 17.0918 19.3267 16.5852 18.46C16.0918 17.5933 15.8452 16.58 15.8452 15.42C15.8452 14.2733 16.0985 13.2667 16.6052 12.4C17.1118 11.52 17.8052 10.8467 18.6852 10.38C19.5652 9.91333 20.5518 9.68 21.6452 9.68C22.7385 9.68 23.7252 9.91333 24.6052 10.38C25.4852 10.8467 26.1785 11.52 26.6852 12.4C27.1918 13.2667 27.4452 14.2733 27.4452 15.42C27.4452 16.5667 27.1852 17.58 26.6652 18.46C26.1585 19.3267 25.4585 19.9933 24.5652 20.46C23.6852 20.9267 22.6985 21.16 21.6052 21.16ZM21.6052 18.2C22.2585 18.2 22.8118 17.96 23.2652 17.48C23.7318 17 23.9652 16.3133 23.9652 15.42C23.9652 14.5267 23.7385 13.84 23.2852 13.36C22.8452 12.88 22.2985 12.64 21.6452 12.64C20.9785 12.64 20.4252 12.88 19.9852 13.36C19.5452 13.8267 19.3252 14.5133 19.3252 15.42C19.3252 16.3133 19.5385 17 19.9652 17.48C20.4052 17.96 20.9518 18.2 21.6052 18.2ZM35.4795 18.1V21H33.7395C32.4995 21 31.5329 20.7 30.8395 20.1C30.1462 19.4867 29.7995 18.4933 29.7995 17.12V12.68H28.4395V9.84H29.7995V7.12H33.2195V9.84H35.4595V12.68H33.2195V17.16C33.2195 17.4933 33.2995 17.7333 33.4595 17.88C33.6195 18.0267 33.8862 18.1 34.2595 18.1H35.4795ZM47.9045 15.24C47.9045 15.56 47.8845 15.8933 47.8445 16.24H40.1045C40.1579 16.9333 40.3779 17.4667 40.7645 17.84C41.1645 18.2 41.6512 18.38 42.2245 18.38C43.0779 18.38 43.6712 18.02 44.0045 17.3H47.6445C47.4579 18.0333 47.1179 18.6933 46.6245 19.28C46.1445 19.8667 45.5379 20.3267 44.8045 20.66C44.0712 20.9933 43.2512 21.16 42.3445 21.16C41.2512 21.16 40.2779 20.9267 39.4245 20.46C38.5712 19.9933 37.9045 19.3267 37.4245 18.46C36.9445 17.5933 36.7045 16.58 36.7045 15.42C36.7045 14.26 36.9379 13.2467 37.4045 12.38C37.8845 11.5133 38.5512 10.8467 39.4045 10.38C40.2579 9.91333 41.2379 9.68 42.3445 9.68C43.4245 9.68 44.3845 9.90667 45.2245 10.36C46.0645 10.8133 46.7179 11.46 47.1845 12.3C47.6645 13.14 47.9045 14.12 47.9045 15.24ZM44.4045 14.34C44.4045 13.7533 44.2045 13.2867 43.8045 12.94C43.4045 12.5933 42.9045 12.42 42.3045 12.42C41.7312 12.42 41.2445 12.5867 40.8445 12.92C40.4579 13.2533 40.2179 13.7267 40.1245 14.34H44.4045ZM54.2488 21.16C53.2754 21.16 52.4088 20.9933 51.6488 20.66C50.8888 20.3267 50.2888 19.8733 49.8488 19.3C49.4088 18.7133 49.1621 18.06 49.1088 17.34H52.4888C52.5288 17.7267 52.7088 18.04 53.0288 18.28C53.3488 18.52 53.7421 18.64 54.2088 18.64C54.6354 18.64 54.9621 18.56 55.1888 18.4C55.4288 18.2267 55.5488 18.0067 55.5488 17.74C55.5488 17.42 55.3821 17.1867 55.0488 17.04C54.7154 16.88 54.1754 16.7067 53.4288 16.52C52.6288 16.3333 51.9621 16.14 51.4288 15.94C50.8954 15.7267 50.4354 15.4 50.0488 14.96C49.6621 14.5067 49.4688 13.9 49.4688 13.14C49.4688 12.5 49.6421 11.92 49.9888 11.4C50.3488 10.8667 50.8688 10.4467 51.5488 10.14C52.2421 9.83333 53.0621 9.68 54.0088 9.68C55.4088 9.68 56.5088 10.0267 57.3088 10.72C58.1221 11.4133 58.5888 12.3333 58.7088 13.48H55.5488C55.4954 13.0933 55.3221 12.7867 55.0288 12.56C54.7488 12.3333 54.3754 12.22 53.9088 12.22C53.5088 12.22 53.2021 12.3 52.9888 12.46C52.7754 12.6067 52.6688 12.8133 52.6688 13.08C52.6688 13.4 52.8354 13.64 53.1688 13.8C53.5154 13.96 54.0488 14.12 54.7688 14.28C55.5954 14.4933 56.2688 14.7067 56.7888 14.92C57.3088 15.12 57.7621 15.4533 58.1488 15.92C58.5488 16.3733 58.7554 16.9867 58.7688 17.76C58.7688 18.4133 58.5821 19 58.2088 19.52C57.8488 20.0267 57.3221 20.4267 56.6288 20.72C55.9488 21.0133 55.1554 21.16 54.2488 21.16ZM73.8394 18.52H68.5994L67.7594 21H64.1794L69.2594 6.96H73.2194L78.2994 21H74.6794L73.8394 18.52ZM72.9594 15.88L71.2194 10.74L69.4994 15.88H72.9594ZM83.2655 11.42C83.5988 10.9 84.0588 10.48 84.6455 10.16C85.2321 9.84 85.9188 9.68 86.7055 9.68C87.6255 9.68 88.4588 9.91333 89.2055 10.38C89.9521 10.8467 90.5388 11.5133 90.9655 12.38C91.4055 13.2467 91.6255 14.2533 91.6255 15.4C91.6255 16.5467 91.4055 17.56 90.9655 18.44C90.5388 19.3067 89.9521 19.98 89.2055 20.46C88.4588 20.9267 87.6255 21.16 86.7055 21.16C85.9321 21.16 85.2455 21 84.6455 20.68C84.0588 20.36 83.5988 19.9467 83.2655 19.44V26.32H79.8455V9.84H83.2655V11.42ZM88.1455 15.4C88.1455 14.5467 87.9055 13.88 87.4255 13.4C86.9588 12.9067 86.3788 12.66 85.6855 12.66C85.0055 12.66 84.4255 12.9067 83.9455 13.4C83.4788 13.8933 83.2455 14.5667 83.2455 15.42C83.2455 16.2733 83.4788 16.9467 83.9455 17.44C84.4255 17.9333 85.0055 18.18 85.6855 18.18C86.3655 18.18 86.9455 17.9333 87.4255 17.44C87.9055 16.9333 88.1455 16.2533 88.1455 15.4ZM96.8397 11.42C97.173 10.9 97.633 10.48 98.2197 10.16C98.8064 9.84 99.493 9.68 100.28 9.68C101.2 9.68 102.033 9.91333 102.78 10.38C103.526 10.8467 104.113 11.5133 104.54 12.38C104.98 13.2467 105.2 14.2533 105.2 15.4C105.2 16.5467 104.98 17.56 104.54 18.44C104.113 19.3067 103.526 19.98 102.78 20.46C102.033 20.9267 101.2 21.16 100.28 21.16C99.5064 21.16 98.8197 21 98.2197 20.68C97.633 20.36 97.173 19.9467 96.8397 19.44V26.32H93.4197V9.84H96.8397V11.42ZM101.72 15.4C101.72 14.5467 101.48 13.88 101 13.4C100.533 12.9067 99.953 12.66 99.2597 12.66C98.5797 12.66 97.9997 12.9067 97.5197 13.4C97.053 13.8933 96.8197 14.5667 96.8197 15.42C96.8197 16.2733 97.053 16.9467 97.5197 17.44C97.9997 17.9333 98.5797 18.18 99.2597 18.18C99.9397 18.18 100.52 17.9333 101 17.44C101.48 16.9333 101.72 16.2533 101.72 15.4Z" fill="#2B2B2B"/>
<line x1="110" y1="4.37114e-08" x2="110" y2="28" stroke="#2B2B2B" stroke-width="2"/>
</svg>
