<svg width="102" height="102" viewBox="0 0 102 102" fill="none" xmlns="http://www.w3.org/2000/svg">
<circle cx="51" cy="51" r="46.75" stroke="#FFC554" stroke-width="8.5"/>
<path d="M40.4444 37.8889C40.4444 33.2313 44.2313 29.4444 48.8889 29.4444H53.1111C57.7688 29.4444 61.5556 33.2313 61.5556 37.8889V38.3639C61.5556 41.2403 60.091 43.9187 57.6764 45.4625L52.1083 49.0382C48.7833 51.1757 46.7778 54.8569 46.7778 58.8021V59C46.7778 61.3354 48.6646 63.2222 51 63.2222C53.3354 63.2222 55.2222 61.3354 55.2222 59V58.8153C55.2222 57.7333 55.7764 56.7306 56.6736 56.15L62.2417 52.5743C67.0708 49.4604 70 44.1167 70 38.3639V37.8889C70 28.5604 62.4396 21 53.1111 21H48.8889C39.5604 21 32 28.5604 32 37.8889C32 40.2243 33.8868 42.1111 36.2222 42.1111C38.5576 42.1111 40.4444 40.2243 40.4444 37.8889ZM51 80.1111C52.3998 80.1111 53.7422 79.5551 54.732 78.5653C55.7217 77.5755 56.2778 76.2331 56.2778 74.8333C56.2778 73.4336 55.7217 72.0912 54.732 71.1014C53.7422 70.1116 52.3998 69.5556 51 69.5556C49.6002 69.5556 48.2578 70.1116 47.268 71.1014C46.2783 72.0912 45.7222 73.4336 45.7222 74.8333C45.7222 76.2331 46.2783 77.5755 47.268 78.5653C48.2578 79.5551 49.6002 80.1111 51 80.1111Z" fill="#FFC554"/>
</svg>
