<svg width="18" height="20" viewBox="0 0 18 20" fill="none" xmlns="http://www.w3.org/2000/svg">
<g clip-path="url(#clip0_47_686)">
<path d="M5.63036 0.691406L5.35714 1.25H1.71429C1.04263 1.25 0.5 1.80859 0.5 2.5C0.5 3.19141 1.04263 3.75 1.71429 3.75H16.2857C16.9574 3.75 17.5 3.19141 17.5 2.5C17.5 1.80859 16.9574 1.25 16.2857 1.25H12.6429L12.3696 0.691406C12.1647 0.265625 11.7435 0 11.2844 0H6.71563C6.25647 0 5.83527 0.265625 5.63036 0.691406ZM16.2857 5H1.71429L2.51875 18.2422C2.57946 19.2305 3.37634 20 4.33638 20H13.6636C14.6237 20 15.4205 19.2305 15.4812 18.2422L16.2857 5Z" fill="#2B2B2B"/>
</g>
<defs>
<clipPath id="clip0_47_686">
<rect width="17" height="20" fill="white" transform="translate(0.5)"/>
</clipPath>
</defs>
</svg>
